<svg xmlns="http://www.w3.org/2000/svg" viewBox="0 0 720 260" role="img" aria-labelledby="t d"><title id="t">Share Brambleheart</title><desc id="d">A glowing thread connecting three bramble-heart nodes.</desc><rect width="720" height="260" rx="26" fill="#eee7dc"/><path d="M112 137C236 51 346 220 474 110c52-45 93-42 138-9" fill="none" stroke="#a86b2a" stroke-width="13" stroke-linecap="round"/><g fill="#567644" stroke="#2e3829" stroke-width="6"><circle cx="120" cy="132" r="36"/><circle cx="362" cy="150" r="42"/><circle cx="602" cy="98" r="36"/></g><path d="M101 127c8-23 38-23 39 1 1 18-20 30-20 30s-21-12-19-31zm239 17c9-27 43-27 44 1 1 20-22 34-22 34s-24-14-22-35zm243-51c8-23 38-23 39 1 1 18-20 30-20 30s-21-12-19-31z" fill="#f5efe6"/><text x="360" y="226" text-anchor="middle" font-family="Georgia,serif" font-size="38" font-weight="700" fill="#302820">SHARE BRAMBLEHEART</text></svg>